HIERARCHY
ROOT Hips
{
	OFFSET -0.179506 -22.333345 2.821913
	CHANNELS 6 Xposition Yposition Zposition Zrotation Yrotation Xrotation 
	JOINT LeftUpLeg
	{
		OFFSET 6.951974 -9.140623 -0.681533
		CHANNELS 3 Zrotation Yrotation Xrotation
		JOINT LeftLeg
		{
			OFFSET 3.427654 -37.519855 -0.449580
			CHANNELS 3 Zrotation Yrotation Xrotation
			JOINT LeftFoot
			{
				OFFSET -1.359570 -39.796059 -4.369333
				CHANNELS 3 Zrotation Yrotation Xrotation
				JOINT LeftToe
				{
					OFFSET 2.635814 -5.579078 11.928840
					CHANNELS 3 Zrotation Yrotation Xrotation
					End Site
					{
						OFFSET 0.000000 0.000000 0.000000
					}
				}
			}
		}
	}
	JOINT RightUpLeg
	{
		OFFSET -6.767048 -9.052170 -0.431982
		CHANNELS 3 Zrotation Yrotation Xrotation
		JOINT RightLeg
		{
			OFFSET -3.829005 -38.256897 -0.885003
			CHANNELS 3 Zrotation Yrotation Xrotation
			JOINT RightFoot
			{
				OFFSET 1.577377 -39.841461 -4.231180
				CHANNELS 3 Zrotation Yrotation Xrotation
				JOINT RightToe
				{
					OFFSET -2.537174 -4.814398 12.334795
					CHANNELS 3 Zrotation Yrotation Xrotation
					End Site
					{
						OFFSET 0.000000 0.000000 0.000000
					}
				}
			}
		}
	}
	JOINT Spine
	{
		OFFSET -0.253288 10.896323 -2.669631
		CHANNELS 3 Zrotation Yrotation Xrotation
		JOINT Spine1
		{
			OFFSET 0.548704 13.518043 0.109247
			CHANNELS 3 Zrotation Yrotation Xrotation
			JOINT Spine2
			{
				OFFSET 0.145701 5.292222 2.542457
				CHANNELS 3 Zrotation Yrotation Xrotation
				JOINT Neck
				{
					OFFSET -0.277840 21.387037 -4.285703
					CHANNELS 3 Zrotation Yrotation Xrotation
					JOINT Head
					{
						OFFSET 0.515184 6.496960 5.134897
						CHANNELS 3 Zrotation Yrotation Xrotation
						End Site
						{
							OFFSET 0.000000 0.000000 0.000000
						}
					}
				}
				JOINT LeftShoulder
				{
					OFFSET 7.884473 12.174932 -3.408961
					CHANNELS 3 Zrotation Yrotation Xrotation
					JOINT LeftArm
					{
						OFFSET 9.097692 3.046888 -0.886815
						CHANNELS 3 Zrotation Yrotation Xrotation
						JOINT LeftForeArm
						{
							OFFSET 25.961220 -1.277207 -2.745643
							CHANNELS 3 Zrotation Yrotation Xrotation
							JOINT LeftHand
							{
								OFFSET 24.923361 0.898606 -0.117091
								CHANNELS 3 Zrotation Yrotation Xrotation
								End Site
								{
									OFFSET 0.000000 0.000000 0.000000
								}
							}
						}
					}
				}
				JOINT RightShoulder
				{
					OFFSET -8.175920 11.883285 -3.861528
					CHANNELS 3 Zrotation Yrotation Xrotation
					JOINT RightArm
					{
						OFFSET -9.601238 3.255117 -0.914307
						CHANNELS 3 Zrotation Yrotation Xrotation
						JOINT RightForeArm
						{
							OFFSET -25.374195 -1.332924 -2.140099
							CHANNELS 3 Zrotation Yrotation Xrotation
							JOINT RightHand
							{
								OFFSET -25.529810 0.777228 -0.555919
								CHANNELS 3 Zrotation Yrotation Xrotation
								End Site
								{
									OFFSET 0.000000 0.000000 0.000000
								}
							}
						}
					}
				}
			}
		}
	}
}
MOTION
Frames: 12
Frame Time: 0.033333
-124.786133 -39.841827 94.557762 -133.593034 1.258938 82.896877 14.343631 7.945982 5.011038 -0.883913 7.836426 18.303959 -1.798840 -0.020247 -21.150574 nan nan nan -14.565331 -14.626326 -10.149698 -0.210778 -18.784751 15.925473 8.886192 -0.078010 -1.317759 nan nan nan -5.587440 4.139044 6.517768 5.224727 -3.921628 8.712980 2.847634 1.341285 -4.174693 1.545956 -9.314209 16.220259 8.129739 -21.061759 15.085298 -0.315254 -17.286506 -2.474475 -78.555207 -45.996665 32.111710 85.090350 -81.209639 -58.293951 15.433440 -32.084959 -38.561813 8.242211 8.915923 2.202382 44.436126 16.143118 -6.685346 -59.665161 44.701513 -47.433155 4.904059 21.652414 -28.112292 
-124.876411 -39.821892 94.586578 -134.391003 1.284138 83.178663 14.346472 8.275466 5.213917 -1.003428 8.012959 17.894452 -1.767820 0.284170 -21.145678 nan nan nan -14.595691 -14.768852 -10.926451 0.045314 -18.657152 16.422407 9.255673 0.416012 -0.864215 nan nan nan -5.259439 3.682044 6.713353 5.056739 -3.878810 7.476825 2.781326 1.382673 -3.590402 1.206175 -8.865132 16.091736 8.024122 -20.526603 15.673375 -0.124156 -17.282364 -2.750162 -77.598255 -46.494991 31.142039 82.303706 -80.956385 -55.875495 15.156879 -32.149669 -38.781330 8.583706 8.655136 2.490125 45.434255 15.733966 -5.902589 -60.574578 46.233135 -47.495829 5.351311 22.095320 -28.199449 
-124.952515 -39.794724 94.612244 -135.301082 1.309743 83.432228 14.347159 8.682414 5.450557 -1.074466 8.301665 17.589050 -1.851772 0.542097 -21.102287 nan nan nan -14.638945 -14.886543 -11.819469 0.290967 -18.558354 17.144946 9.704556 0.981812 -0.371377 nan nan nan -5.090510 3.299774 6.911266 5.047296 -3.877449 6.454724 2.802580 1.413699 -3.227173 0.925857 -8.377670 16.065071 7.829521 -19.965011 15.984215 0.158196 -17.240623 -2.968141 -76.729988 -47.050042 30.203019 79.758540 -80.561025 -53.718620 15.346067 -31.982715 -39.252922 8.852552 8.325597 2.700195 46.408600 15.343318 -5.022140 -61.271406 47.797768 -47.436452 5.031653 22.214980 -28.074001 
-125.012146 -39.762978 94.623886 -136.343536 1.340426 83.679997 14.383472 9.085585 5.708002 -1.174632 8.773320 17.387768 -2.064832 0.751302 -21.029558 nan nan nan -14.661651 -14.861233 -12.788485 0.537887 -18.480126 18.002014 10.098639 1.537730 -0.057293 nan nan nan -5.086460 3.070760 6.735157 5.251184 -3.894460 6.063910 2.921074 1.344254 -2.946496 0.739137 -7.683140 15.897727 7.488206 -19.590154 16.215108 0.521902 -17.324235 -3.259448 -76.005429 -47.618595 29.334766 78.109773 -79.933147 -52.225357 15.320122 -31.761934 -38.278542 9.074763 8.077217 2.872935 47.256086 14.908606 -4.155755 -62.048660 49.280776 -47.380063 5.368615 22.277947 -27.853686 
-125.078598 -39.728813 94.629715 -137.487300 1.395605 83.862745 14.433382 9.325541 6.096725 -1.299171 9.443154 17.075188 -2.204779 1.019410 -20.943563 nan nan nan -14.717142 -14.735003 -13.784703 0.854621 -18.469435 18.988094 10.461345 1.908804 0.304321 nan nan nan -5.166137 2.945744 6.366653 5.613722 -3.872486 6.214142 3.081005 1.233567 -2.800846 0.497113 -6.946827 15.543867 7.138722 -19.442508 16.434185 0.895483 -17.580698 -3.636453 -75.168975 -48.294413 28.545779 76.902467 -79.007303 -51.448276 15.151396 -31.701121 -37.178978 9.253013 8.028200 3.008926 48.006266 14.242974 -3.210717 -63.167109 50.426604 -47.992238 6.091325 22.953916 -28.268136 
-125.165894 -39.678051 94.623940 -138.653634 1.374228 83.924667 14.352437 9.339379 6.723140 -1.453100 10.101857 16.484142 -2.014198 1.450651 -20.888152 nan nan nan -14.912626 -14.662276 -14.763241 1.089782 -18.551770 20.172824 10.822806 2.273188 0.636261 nan nan nan -5.185402 2.803390 6.158192 5.875542 -3.872453 6.412378 3.157818 1.126222 -2.753081 0.373577 -6.177238 15.223448 6.839415 -19.310442 16.516460 1.389786 -17.596314 -4.098186 -74.544981 -49.116395 27.858350 75.050946 -77.909065 -50.546899 14.839731 -31.939170 -37.842819 9.404177 7.776440 3.032612 49.020059 13.732744 -1.869337 -64.308813 51.595404 -48.206698 6.024387 22.880318 -27.390332 
-125.266106 -39.612328 94.606010 -139.821390 1.280105 83.958115 14.161074 9.402911 7.419263 -1.616091 10.540049 15.759382 -1.766767 2.010406 -20.783159 nan nan nan -15.161276 -14.484094 -15.754705 1.254967 -18.571042 21.420526 11.130090 2.491362 0.675306 nan nan nan -5.197096 2.524595 6.407192 6.063801 -3.852746 6.255883 3.209660 0.952851 -2.878174 0.104286 -5.334255 14.915487 6.523722 -19.040993 16.656382 1.985727 -17.266970 -4.671918 -74.115026 -49.826996 27.365172 74.082313 -77.093925 -50.099547 14.890779 -31.817924 -37.697003 9.559922 7.333400 2.838536 50.217259 13.219542 -0.343716 -65.255359 53.004857 -48.152333 6.723965 22.884723 -27.069791 
-125.369568 -39.526794 94.582558 -141.012117 1.275846 83.958521 14.114213 9.727660 8.067465 -1.638919 11.138197 15.447477 -2.099790 2.285329 -20.797078 nan nan nan -15.274132 -14.254008 -16.754898 1.378419 -18.545668 22.787840 11.480968 2.727267 0.487618 nan nan nan -5.183665 2.212598 6.517351 6.300122 -3.918771 6.318834 3.283933 0.880874 -2.960337 -0.041723 -4.341890 14.607550 6.263449 -18.817511 16.590634 2.587812 -17.250584 -5.089268 -73.202533 -50.700232 26.377737 73.609149 -76.276047 -50.167081 15.233757 -31.874407 -37.584772 9.873757 6.867559 2.866081 51.036616 12.696245 0.691249 -65.948777 54.709871 -48.042946 5.300591 22.851997 -27.124460 
-125.473587 -39.400326 94.548080 -142.202754 1.297503 83.902582 14.111605 10.087144 8.795406 -1.665028 11.495087 14.984164 -2.208650 2.667446 -20.758306 nan nan nan -15.338231 -14.153239 -17.742988 1.497466 -18.574751 24.274515 11.466368 3.018590 0.114455 nan nan nan -5.232119 1.770123 6.521717 6.524065 -4.052067 6.535926 3.461597 0.954781 -3.017131 -0.406390 -3.474264 14.418701 6.129984 -18.258662 16.435451 3.166095 -17.518570 -5.584884 -71.894159 -51.348928 25.072985 74.246377 -75.207533 -51.474811 14.664048 -31.968312 -36.508766 10.078062 6.808581 3.216946 51.692294 11.875976 1.107739 -66.321129 56.564032 -48.239121 6.872586 23.375314 -26.716932 
-125.599426 -39.246254 94.504105 -143.425970 1.299784 83.759901 14.102828 10.483550 9.659307 -1.658540 11.800912 14.435240 -2.097838 3.051404 -20.738803 nan nan nan -15.389934 -14.189347 -18.715802 1.509398 -18.727697 25.850584 11.386675 3.264531 -0.297879 nan nan nan -5.163440 1.225764 6.722681 6.624136 -4.149734 6.498618 3.650176 0.837970 -3.020633 -0.931465 -2.563172 14.334850 5.890301 -17.358878 16.438582 3.660464 -17.550199 -6.130484 -70.417447 -51.808245 23.558453 74.943170 -74.388873 -52.831436 14.480964 -31.839892 -35.507689 10.150307 6.973787 3.678200 52.548035 11.225860 1.721232 -66.369562 57.858318 -48.538205 6.253935 23.703848 -25.755903 
-125.726357 -39.068836 94.447601 -144.696623 1.229205 83.609615 14.102004 11.016011 10.511182 -1.702045 12.189481 14.059627 -2.229193 3.326191 -20.756778 nan nan nan -15.463154 -14.271525 -19.650748 1.442012 -19.047617 27.331873 11.448234 3.408320 -0.720832 nan nan nan -5.217727 0.905151 6.951552 6.807157 -4.250445 6.416998 3.815563 0.489450 -3.038736 -1.220607 -1.562046 14.113855 5.425966 -16.468949 16.649148 4.247754 -17.501549 -6.598207 -68.925079 -52.468938 22.167794 75.562516 -73.442337 -53.883375 14.325970 -31.762517 -34.807593 10.244763 6.578210 3.203623 53.516400 10.612213 2.859209 -65.416329 59.154638 -47.413668 8.027846 23.920504 -24.337489 
-125.844467 -38.852543 94.395142 -145.933378 1.134590 83.552733 13.994739 11.399866 11.310650 -1.750403 12.527968 13.483215 -2.176680 3.780724 -20.817659 nan nan nan -15.513549 -14.351001 -20.597068 1.251144 -19.684224 28.746382 11.207756 3.470741 -1.374321 nan nan nan -5.189987 0.603507 7.111141 6.895500 -4.307436 6.192340 3.895214 0.229489 -2.991225 -1.587194 -0.595163 14.072526 5.190107 -15.761157 16.656790 4.737338 -17.781911 -7.041175 -66.990536 -53.099958 20.622922 76.021460 -72.472919 -54.914470 14.194194 -31.819248 -34.147726 10.563252 6.301325 3.083668 54.480304 9.529056 3.705368 -65.179163 60.377237 -46.861527 8.965527 23.842227 -23.141821 
